<svg id="perfil_masculino" data-name="perfil masculino" xmlns="http://www.w3.org/2000/svg" viewBox="0 0 846.88 1131.2"><defs><style>.cls-1{fill:#666;}.cls-2{fill:#e6e6e6;}.cls-3{fill:#b3b3b3;}</style></defs><title>perfil-femenino</title><path class="cls-1" d="M244.5,1020c-9.5,3.17-10.17-60.33-18.83-65s-21.33-21.33-20-28.67,4-27.33-6.67-18S179.67,959,183,903s8.67-114.67,2.67-157.33S169,637,174.33,550.33,196.53,386,265,299.67c48.67-61.33,105.33-108,170-113.33s104.67-2.67,121.33,12S629,239.67,661,293.67s74.67,146,78,258-17.33,176.67-12,216,1,102,1.33,109-9.33-6.67-4.67,2.67-6,4-2,20.33-3.33,21.67-5.67,15-12-16.33-11-8,4.33,23-4.33,21-14.33,6-13.33,16,4.33,30-6.33,10.33,1.33,10.67-1.33,21-7.67,6.67-9.67,49-113-47.67-179-44.33S385.67,963,343.67,984.33,258.47,1015.34,244.5,1020Z" transform="translate(-44.73 -183.8)"/><path class="cls-2" d="M226,1022c40.58-15.18,75-26,83-53s23-91,16-133,260-59,266-24,2,134,29,170,64.07,51.44,110.07,60.44-44.23,215.47-204.44,225.12c-124.49,7.5-312-43.5-320.63-93.56C192.75,1103,184.27,1037.61,226,1022Z" transform="translate(-44.73 -183.8)"/><path class="cls-3" d="M442.67,938.67c63.72,6.33,124-40,144-60.67s76.67-87.33,76.67-160.67c17.33-12,29.66-28.6,35-49.93s-1.16-41.73,4.18-60.4,9.25-23.75,9.25-42.75S707,524,704,538s-1.5,30.5-8.5,42S690,627.83,676,632.33s-3-44.83-7-67.33-10.5-63.5-28.5-99-71.5-88.5-87-100.5-163.5-16-187,0-77,58.5-94,106.5S256,584,242,593.5s3,38,0,43-4.5,32.5-8,3.5-3-35.5-13-53-17.5-28.17-11.5-37.17S224,521,215,535.5s-18,35-12.5,57,8.5,69,16,89,10,26.5,22.5,31,17-1.5,16.5,16.5,3,48.5,14,68.5S358.83,930.33,442.67,938.67Z" transform="translate(-44.73 -183.8)"/><path class="cls-2" d="M439.67,929.67c63.72,6.33,124-40,144-60.67s76.67-87.33,76.67-160.67c17.33-12,35.33-30,40.67-51.33s2-40,7.33-58.67,6.17-22.83,6.17-41.83S704,515,701,529s-1.5,30.5-8.5,42S691,613.83,677,618.33,670,578.5,666,556s-10.5-63.5-28.5-99-71.5-88.5-87-100.5-163.5-16-187,0-77,58.5-94,106.5S253,575,239,584.5s3,38,0,43-4.5,32.5-8,3.5-3-35.5-13-53-11-24-5-33,8-33-1-18.5-18,35-12.5,57,8.5,69,16,89,10,26.5,22.5,31,17-1.5,16.5,16.5,3,48.5,14,68.5S355.83,921.33,439.67,929.67Z" transform="translate(-44.73 -183.8)"/><path class="cls-1" d="M882,1071.57c4.79,70.59,9.59,243.43,9.59,243.43H46.91s0.7-175.45-2.18-231.93c0,0,109.27-33.07,181.27-61.07,1,59,35,171.93,242.52,169C681,1188,699,1074,706,1037,756,1046,882,1071.57,882,1071.57Z" transform="translate(-44.73 -183.8)"/></svg>