<svg id="perfil_masculino" data-name="perfil masculino" xmlns="http://www.w3.org/2000/svg" viewBox="0 0 883.27 1178.64"><defs><style>.cls-1{fill:#e6e6e6;}.cls-2{fill:#b3b3b3;}.cls-3{fill:#666;}.cls-4,.cls-5{fill:#fff;}.cls-5{stroke:#ccc;stroke-miterlimit:10;}</style></defs><title>perfil-masculino</title><path class="cls-1" d="M1716.59,1043.57c28-12.45,85.58-71.9,122.25-99.9s35.25-26.67,39.25-47.33,7.58-65-1.75-115c40,44,86.67-99.5,162.67-102.83s141,121.17,167,89.17c2,60,2,107.12,13.33,134.56s59.89,90,103.22,111.34c-0.67,27.79-22.5,99-22.5,99l-495-10.5Z" transform="translate(-1622.73 -111.36)"/><path class="cls-2" d="M2222.5,755c12.33-21.58,8.17-68.52,13.36-73.7S2265,666.38,2270.22,643s10.37-65.49,12.32-82.35,16.86-9.08,0-36.31-23.34-129-42.8-152.38-24-114.77-114.12-108.29-241.86,17.07-265.21,62.9c-17.51,34.37-48.63,122.55-49.28,143.3s1.95,42.8-9.08,43.44-20.1,11-21.4,28.53,13,27.88,16.21,62.9,11.67,50.58,19.45,57.71,20.75-3.89,24.64,20.1,5.22,56,16.86,75.22C1879.33,793.33,1951.59,897,2021,895S2165.37,855,2222.5,755Z" transform="translate(-1622.73 -111.36)"/><path class="cls-3" d="M2211,867c125,97,220,141.13,285,147.13,5,80,10,275.87,10,275.87H1625s0.73-174.42-2.27-238.42c95-44,214.46-96.48,256.27-159.58,92.66,124.9,196,301,196,301Z" transform="translate(-1622.73 -111.36)"/><path class="cls-1" d="M2219.5,743c12.33-21.58,8.17-68.52,13.36-73.7S2262,654.38,2267.22,631s10.37-65.49,12.32-82.35,16.86-9.08,0-36.31-23.34-129-42.8-152.38-24-114.77-114.12-108.29-241.86,17.07-265.21,62.9c-17.51,34.37-48.63,122.55-49.28,143.3s1.95,42.8-9.08,43.44-20.1,11-21.4,28.53,13,27.88,16.21,62.9,11.67,50.58,19.45,57.71,20.75-3.89,24.64,20.1,5.22,56,16.86,75.22C1876.33,781.33,1948.59,885,2018,883S2162.37,843,2219.5,743Z" transform="translate(-1622.73 -111.36)"/><path class="cls-3" d="M1840,500.33c10.21-78.06,16.67-155.33,37.33-170.67s26-41.33,52-30.67,48.67,10.67,80,8.67,102-22.33,127.33-11.17,48.67,3.83,68,56.5,26.67,114,32.67,147.33,4.67,59.33,7.33,80.67c1.33-20.67,27.07-77.62,31.33-86.67,16.67-35.33,9.33-47.16,5.33-57.25s12.87-20.09,5.1-32.75,8.23-6.67,4.9-38-2.67-119.33-13.33-144S2236,177,2229.33,181s-2.67-8,8.67-10.67c-24.67-1.33-24,3.33-48,6.67s0.67-16.67-14.67-28.67-36.67-8.67-44.67-16-0.67-28-14-16.67-22,12-36,8.67-49.33-16.65-78-12-38,22-60,24.66-53.33,19.33-73.33,35.33S1816,208.33,1810,243s-22.67,69.7-18,103.18-0.67,80.15,2.67,112.15,23,49.28,24.67,78.67c1.33,23.33,6.67,48,6.67,48S1835.66,533.54,1840,500.33Z" transform="translate(-1622.73 -111.36)"/><path class="cls-4" d="M1944.55,1064.5l104.95,181,95.5-189s-60.5-49.5-120.5-41.5S1944.55,1064.5,1944.55,1064.5Z" transform="translate(-1622.73 -111.36)"/><path class="cls-5" d="M2035.53,1015s145.58-92.83,173.08-176.33c6.05,47-4.28,109-4.28,109S2197,1043,2173,1110C2119,1043,2035.53,1015,2035.53,1015Z" transform="translate(-1622.73 -111.36)"/><path class="cls-5" d="M1919,1125s-29.86-72.91-36-107.5c-11-62-10.88-113.41-2.88-134.46,59,52,155.41,132,155.41,132S1959,1052,1919,1125Z" transform="translate(-1622.73 -111.36)"/></svg>