<svg id="Objetos" xmlns="http://www.w3.org/2000/svg" viewBox="0 0 83.7 23.3"><defs><style>.cls-1{fill:#d3d3d3;}.cls-2{fill:#ad5d00;}</style></defs><title>logo-tauranet</title><path class="cls-1" d="M719.8,458.3a51.2,51.2,0,0,0-6,1.3l-0.9.2a0.8,0.8,0,0,1-.6-0.3,0.7,0.7,0,0,1-.2-0.5,1.1,1.1,0,0,1,1-1,60.9,60.9,0,0,1,6.3-1.5,49.2,49.2,0,0,1,8.8-.8l1.9,0.2a0.6,0.6,0,0,1,.5.6,1,1,0,0,1-1.1.9h-2.9a30.5,30.5,0,0,0-5.3.5,0.5,0.5,0,0,1,.4.5,2.4,2.4,0,0,1-.5,1.1,82.1,82.1,0,0,0-5.9,10.2,49,49,0,0,0-3.1,7.7,1,1,0,0,1-.8,1,1,1,0,0,1-.8-0.5,1.3,1.3,0,0,1-.2-0.7q0-1.5,2.8-7.2,1.8-3.7,3.3-6.2l3-4.8Z" transform="translate(-710.2 -455.2)"/><path class="cls-1" d="M726.6,474l-1,1.6a2.8,2.8,0,0,1-2,1.3,1.5,1.5,0,0,1-1.4-.8,2.5,2.5,0,0,1-.3-1.3,8.7,8.7,0,0,1,1.1-4,10.5,10.5,0,0,1,3-3.7,3.9,3.9,0,0,1,2.2-.8,1.6,1.6,0,0,1,1.1.4,1.1,1.1,0,0,1,.4.8,2.7,2.7,0,0,1-.3,1,1.1,1.1,0,0,1,.2.6,2.7,2.7,0,0,1-.5,1.1,12.4,12.4,0,0,0-.9,2.1,7,7,0,0,0-.5,2.2,1.6,1.6,0,0,0,.4,1.1l0.7,0.4a0.7,0.7,0,0,1,.4.7,0.6,0.6,0,0,1-.2.5l-0.6.2a1.9,1.9,0,0,1-1.5-.8,2.4,2.4,0,0,1-.5-1.6Q726.6,474.8,726.6,474Zm2-5.3-0.4-.5-0.5-.2q-1.2,0-2.7,2.1a7.7,7.7,0,0,0-1.6,4,1,1,0,0,0,.2.6l0.5,0.2q0.8,0,1.8-1.6a27.2,27.2,0,0,0,1.4-2.7l0.8-1.5Z" transform="translate(-710.2 -455.2)"/><path class="cls-1" d="M735,474.2l-1.2,1.6a2.6,2.6,0,0,1-1.9,1,1.4,1.4,0,0,1-1.2-.7,2.2,2.2,0,0,1-.3-1.2,9,9,0,0,1,1.8-4.8,8.4,8.4,0,0,1,1.6-1.9,1.8,1.8,0,0,1,1-.5l0.4,0.2a0.5,0.5,0,0,1,.2.4,2,2,0,0,1-.6,1,16.6,16.6,0,0,0-2,2.9,5.9,5.9,0,0,0-.8,2.5,0.5,0.5,0,0,0,.1.3h0.3q0.8,0,2.3-2.4a15.1,15.1,0,0,0,1.3-2.7,5.5,5.5,0,0,1,.8-1.4,1.2,1.2,0,0,1,.9-0.6l0.4,0.2a0.7,0.7,0,0,1,.2.5,8.1,8.1,0,0,1-1.1,2.6,5.2,5.2,0,0,0-.8,2.3,2.8,2.8,0,0,0,.5,1.7l0.9,0.6a0.7,0.7,0,0,1,.4.7,0.6,0.6,0,0,1-.3.5l-0.6.2a2.1,2.1,0,0,1-1.5-.6,2.8,2.8,0,0,1-.8-1.7Q735,474.9,735,474.2Z" transform="translate(-710.2 -455.2)"/><path class="cls-1" d="M742,471.4a31.5,31.5,0,0,1,3.7-3.3l1.6-1.1,0.5-.2a0.6,0.6,0,0,1,.5.4,0.6,0.6,0,0,1,.1.4,1.4,1.4,0,0,1-.6.8q-1.6,1.3-1.6,2a0.4,0.4,0,0,0,.4.4,5.5,5.5,0,0,0,2.4-1.1l0.5-.2h0.3a0.4,0.4,0,0,1,.1.3,2.9,2.9,0,0,1-1.4,1.5,4.6,4.6,0,0,1-2.7,1.1l-1-.3a0.9,0.9,0,0,1-.4-0.8,1.7,1.7,0,0,1,.3-0.9,16,16,0,0,0-3,3.1,22.4,22.4,0,0,0-2,3.3,1.1,1.1,0,0,1-.9.7,0.5,0.5,0,0,1-.6-0.6,12.8,12.8,0,0,1,.9-2.9,22.4,22.4,0,0,1,2.9-5.5,2.5,2.5,0,0,1,1.6-1.2h0.4a0.5,0.5,0,0,1,.2.4,1.3,1.3,0,0,1-.3.7l-0.9,1.1A8.5,8.5,0,0,0,742,471.4Z" transform="translate(-710.2 -455.2)"/><path class="cls-1" d="M753.9,474l-1,1.6a2.8,2.8,0,0,1-2,1.3,1.5,1.5,0,0,1-1.4-.8,2.5,2.5,0,0,1-.3-1.3,8.7,8.7,0,0,1,1.1-4,10.5,10.5,0,0,1,3-3.7,3.9,3.9,0,0,1,2.2-.8,1.6,1.6,0,0,1,1.1.4,1.1,1.1,0,0,1,.4.8,2.7,2.7,0,0,1-.3,1,1.1,1.1,0,0,1,.2.6,2.7,2.7,0,0,1-.5,1.1,12.4,12.4,0,0,0-.9,2.1,7,7,0,0,0-.5,2.2,1.6,1.6,0,0,0,.4,1.1l0.7,0.4a0.7,0.7,0,0,1,.4.7,0.6,0.6,0,0,1-.2.5l-0.6.2a1.9,1.9,0,0,1-1.5-.8,2.4,2.4,0,0,1-.5-1.6Q753.8,474.8,753.9,474Zm2-5.3-0.4-.5L755,468q-1.2,0-2.7,2.1a7.7,7.7,0,0,0-1.6,4,1,1,0,0,0,.2.6l0.5,0.2q0.8,0,1.8-1.6a27.2,27.2,0,0,0,1.4-2.7l0.8-1.5Z" transform="translate(-710.2 -455.2)"/><path class="cls-2" d="M768.1,474.3a57.6,57.6,0,0,1,3.2-7.6q1.4-2.8,3.9-7.1a29,29,0,0,1,2.4-3.8,1.6,1.6,0,0,1,1.2-.6,0.4,0.4,0,0,1,.5.5,1.4,1.4,0,0,1-.2.6l-1.3,2.2a86.6,86.6,0,0,0-5.4,10q-1.6,3.5-2.7,6.9a5.6,5.6,0,0,1-.9,1.8,1.9,1.9,0,0,1-1.4.9,0.9,0.9,0,0,1-.8-1,8.7,8.7,0,0,1-.1-1.5,54.4,54.4,0,0,1,.8-8.6,65.4,65.4,0,0,1,1.4-6.6,46.4,46.4,0,0,0-4.6,7.2,44.6,44.6,0,0,0-3.7,8.1,12.1,12.1,0,0,1-.7,1.9,1.2,1.2,0,0,1-1.1.7l-0.5-.2a0.6,0.6,0,0,1-.2-0.4,13.8,13.8,0,0,1,1-3.2,66.2,66.2,0,0,1,4.5-8.8q1.9-3.2,4.5-6.8a13.7,13.7,0,0,1,1.8-2.2,1.7,1.7,0,0,1,1-.5h0.4a0.5,0.5,0,0,1,.2.4,2,2,0,0,1-.2.7,42.5,42.5,0,0,0-1.6,5.5,44,44,0,0,0-1.3,9.6Q768,473.2,768.1,474.3Z" transform="translate(-710.2 -455.2)"/><path class="cls-2" d="M775.4,473.6v0.3a1.1,1.1,0,0,0,.2.6,1.5,1.5,0,0,0,1.3.6q2,0,4.7-3.1a1.2,1.2,0,0,1,.8-0.5l0.3,0.2v0.2q0,0.6-1.6,2.1a11.7,11.7,0,0,1-2.6,1.9,5.4,5.4,0,0,1-2.6.7,2.3,2.3,0,0,1-1.9-.8,2.5,2.5,0,0,1-.5-1.6,7.7,7.7,0,0,1,2.6-5.3q2.1-2.1,3.6-2.1l0.8,0.3a1.1,1.1,0,0,1,.4.9,4.2,4.2,0,0,1-.8,2.1A8.4,8.4,0,0,1,775.4,473.6Zm0.4-1.3a6.5,6.5,0,0,0,1.8-.9,7.2,7.2,0,0,0,1.8-2,1.3,1.3,0,0,0,.2-0.7,0.3,0.3,0,0,0-.3-0.3,2.3,2.3,0,0,0-1.2.6A8.3,8.3,0,0,0,775.8,472.3Z" transform="translate(-710.2 -455.2)"/><path class="cls-2" d="M789.2,466.3a26.3,26.3,0,0,0-1.9,3.7,12,12,0,0,0-1.3,4.3,1,1,0,0,0,.2.6l0.5,0.2q0.8,0,2-1.5l1.3-1.9a0.8,0.8,0,0,1,.7-0.5h0.4v0.3a7.1,7.1,0,0,1-1.6,2.7q-1.9,2.5-3.4,2.5a1.6,1.6,0,0,1-1.4-.8,2.4,2.4,0,0,1-.3-1.4,11.7,11.7,0,0,1,1.1-4.6l1.5-3.1h-0.7l-0.6-.2a0.7,0.7,0,0,1-.4-0.6,0.7,0.7,0,0,1,.5-0.6l1.2-.2,1.1-.3a28.6,28.6,0,0,1,1.8-2.8l1-1.3a1.1,1.1,0,0,1,.7-0.4l0.4,0.2a0.6,0.6,0,0,1,.2.4,4.1,4.1,0,0,1-.9,1.7l-0.9,1.3,2.6-.5a0.7,0.7,0,0,1,.9.7,0.6,0.6,0,0,1-.3.5l-0.8.2-2.4.6Z" transform="translate(-710.2 -455.2)"/></svg>